<mxfile host="app.diagrams.net" modified="2024-03-22T09:21:03.857Z" agent="Mozilla/5.0 (Windows NT 10.0; Win64; x64) AppleWebKit/537.36 (KHTML, like Gecko) Chrome/123.0.0.0 Safari/537.36" etag="WO-diysDuVFjRLi7HgF8" version="24.0.7" type="github" pages="2">
  <diagram name="Search and Results" id="EjSmjShiK06Z1aKPEQtG">
    <mxGraphModel dx="1034" dy="446" grid="1" gridSize="10" guides="1" tooltips="1" connect="1" arrows="1" fold="1" page="1" pageScale="1" pageWidth="850" pageHeight="1100" math="0" shadow="0">
      <root>
        <mxCell id="0" />
        <mxCell id="1" parent="0" />
        <mxCell id="NHKOM5S_4V-dGVnU0B9f-1" value="" style="endArrow=classic;html=1;rounded=0;" parent="1" edge="1">
          <mxGeometry width="50" height="50" relative="1" as="geometry">
            <mxPoint x="460" y="240" as="sourcePoint" />
            <mxPoint x="620" y="140" as="targetPoint" />
            <Array as="points">
              <mxPoint x="460" y="180" />
              <mxPoint x="620" y="180" />
            </Array>
          </mxGeometry>
        </mxCell>
        <mxCell id="NHKOM5S_4V-dGVnU0B9f-2" value="" style="verticalLabelPosition=bottom;html=1;verticalAlign=top;align=center;strokeColor=none;fillColor=#00BEF2;shape=mxgraph.azure.user;" parent="1" vertex="1">
          <mxGeometry x="8" y="190" width="30" height="20" as="geometry" />
        </mxCell>
        <mxCell id="NHKOM5S_4V-dGVnU0B9f-3" value="" style="rounded=0;whiteSpace=wrap;html=1;" parent="1" vertex="1">
          <mxGeometry x="227" y="40" width="60" height="400" as="geometry" />
        </mxCell>
        <mxCell id="NHKOM5S_4V-dGVnU0B9f-4" value="" style="verticalLabelPosition=bottom;html=1;verticalAlign=top;align=center;strokeColor=none;fillColor=#00BEF2;shape=mxgraph.azure.website_generic;pointerEvents=1;" parent="1" vertex="1">
          <mxGeometry x="86" y="178.75" width="50" height="42.5" as="geometry" />
        </mxCell>
        <mxCell id="NHKOM5S_4V-dGVnU0B9f-5" value="" style="sketch=0;points=[[0,0,0],[0.25,0,0],[0.5,0,0],[0.75,0,0],[1,0,0],[0,1,0],[0.25,1,0],[0.5,1,0],[0.75,1,0],[1,1,0],[0,0.25,0],[0,0.5,0],[0,0.75,0],[1,0.25,0],[1,0.5,0],[1,0.75,0]];outlineConnect=0;fontColor=#232F3E;fillColor=#E7157B;strokeColor=#ffffff;dashed=0;verticalLabelPosition=bottom;verticalAlign=top;align=center;html=1;fontSize=12;fontStyle=0;aspect=fixed;shape=mxgraph.aws4.resourceIcon;resIcon=mxgraph.aws4.api_gateway;" parent="1" vertex="1">
          <mxGeometry x="237" y="220.75" width="38" height="38" as="geometry" />
        </mxCell>
        <mxCell id="NHKOM5S_4V-dGVnU0B9f-6" value="" style="endArrow=classic;html=1;rounded=0;" parent="1" edge="1">
          <mxGeometry width="50" height="50" relative="1" as="geometry">
            <mxPoint x="48" y="207.75" as="sourcePoint" />
            <mxPoint x="78" y="208" as="targetPoint" />
          </mxGeometry>
        </mxCell>
        <mxCell id="NHKOM5S_4V-dGVnU0B9f-7" value="" style="endArrow=classic;html=1;rounded=0;" parent="1" edge="1">
          <mxGeometry width="50" height="50" relative="1" as="geometry">
            <mxPoint x="108" y="172" as="sourcePoint" />
            <mxPoint x="220" y="122" as="targetPoint" />
            <Array as="points">
              <mxPoint x="108" y="122" />
            </Array>
          </mxGeometry>
        </mxCell>
        <mxCell id="NHKOM5S_4V-dGVnU0B9f-8" value="Booking Search&lt;br&gt;i) Cash&lt;br&gt;II) &lt;b&gt;Redeem&lt;/b&gt;&lt;br&gt;iii) Cash+Points" style="text;html=1;strokeColor=none;fillColor=none;align=left;verticalAlign=top;whiteSpace=wrap;rounded=0;fontSize=8;" parent="1" vertex="1">
          <mxGeometry x="150.5" y="171" width="58.5" height="47" as="geometry" />
        </mxCell>
        <mxCell id="NHKOM5S_4V-dGVnU0B9f-9" value="" style="endArrow=classic;html=1;rounded=0;entryX=0.5;entryY=1;entryDx=0;entryDy=0;" parent="1" target="NHKOM5S_4V-dGVnU0B9f-10" edge="1">
          <mxGeometry width="50" height="50" relative="1" as="geometry">
            <mxPoint x="160" y="122" as="sourcePoint" />
            <mxPoint x="200" y="72" as="targetPoint" />
          </mxGeometry>
        </mxCell>
        <mxCell id="NHKOM5S_4V-dGVnU0B9f-10" value="&lt;font style=&quot;font-size: 10px;&quot;&gt;IAM&lt;/font&gt;" style="rounded=0;whiteSpace=wrap;html=1;" parent="1" vertex="1">
          <mxGeometry x="140" y="40" width="40" height="40" as="geometry" />
        </mxCell>
        <mxCell id="NHKOM5S_4V-dGVnU0B9f-14" value="" style="ellipse;whiteSpace=wrap;html=1;aspect=fixed;" parent="1" vertex="1">
          <mxGeometry x="98" y="127" width="20" height="20" as="geometry" />
        </mxCell>
        <mxCell id="NHKOM5S_4V-dGVnU0B9f-15" value="&lt;font style=&quot;font-size: 10px;&quot;&gt;1&lt;/font&gt;" style="text;html=1;strokeColor=none;fillColor=none;align=center;verticalAlign=middle;whiteSpace=wrap;rounded=0;" parent="1" vertex="1">
          <mxGeometry x="93" y="127" width="30" height="20" as="geometry" />
        </mxCell>
        <mxCell id="NHKOM5S_4V-dGVnU0B9f-16" value="User logs into SkyPlus/LMS" style="text;html=1;strokeColor=none;fillColor=none;align=left;verticalAlign=top;whiteSpace=wrap;rounded=0;fontSize=8;" parent="1" vertex="1">
          <mxGeometry x="32.5" y="120.5" width="58.5" height="38.5" as="geometry" />
        </mxCell>
        <mxCell id="NHKOM5S_4V-dGVnU0B9f-17" value="" style="endArrow=classic;html=1;rounded=0;" parent="1" edge="1">
          <mxGeometry width="50" height="50" relative="1" as="geometry">
            <mxPoint x="107" y="219" as="sourcePoint" />
            <mxPoint x="215" y="252" as="targetPoint" />
            <Array as="points">
              <mxPoint x="107" y="252" />
            </Array>
          </mxGeometry>
        </mxCell>
        <mxCell id="NHKOM5S_4V-dGVnU0B9f-18" value="" style="ellipse;whiteSpace=wrap;html=1;aspect=fixed;" parent="1" vertex="1">
          <mxGeometry x="97" y="226" width="20" height="20" as="geometry" />
        </mxCell>
        <mxCell id="NHKOM5S_4V-dGVnU0B9f-19" value="&lt;font style=&quot;font-size: 10px;&quot;&gt;4&lt;/font&gt;" style="text;html=1;strokeColor=none;fillColor=none;align=center;verticalAlign=middle;whiteSpace=wrap;rounded=0;" parent="1" vertex="1">
          <mxGeometry x="92" y="226" width="30" height="20" as="geometry" />
        </mxCell>
        <mxCell id="NHKOM5S_4V-dGVnU0B9f-20" value="User chooses Redeem and provides O&amp;amp;D and date for search" style="text;html=1;strokeColor=none;fillColor=none;align=left;verticalAlign=top;whiteSpace=wrap;rounded=0;fontSize=8;" parent="1" vertex="1">
          <mxGeometry x="132.5" y="253.5" width="58.5" height="38.5" as="geometry" />
        </mxCell>
        <mxCell id="NHKOM5S_4V-dGVnU0B9f-21" value="&lt;font style=&quot;font-size: 10px;&quot;&gt;LMS Services&lt;/font&gt;" style="rounded=0;whiteSpace=wrap;html=1;" parent="1" vertex="1">
          <mxGeometry x="396" y="68" width="99" height="68" as="geometry" />
        </mxCell>
        <mxCell id="NHKOM5S_4V-dGVnU0B9f-22" value="&lt;font style=&quot;font-size: 10px;&quot;&gt;Skyplus Services&lt;/font&gt;" style="rounded=0;whiteSpace=wrap;html=1;" parent="1" vertex="1">
          <mxGeometry x="396" y="248" width="99" height="72" as="geometry" />
        </mxCell>
        <mxCell id="NHKOM5S_4V-dGVnU0B9f-23" value="&lt;font style=&quot;font-size: 10px;&quot;&gt;Offer Engine&lt;/font&gt;" style="rounded=0;whiteSpace=wrap;html=1;" parent="1" vertex="1">
          <mxGeometry x="597" y="248" width="88" height="72" as="geometry" />
        </mxCell>
        <mxCell id="NHKOM5S_4V-dGVnU0B9f-24" value="" style="endArrow=classic;html=1;rounded=0;" parent="1" edge="1">
          <mxGeometry width="50" height="50" relative="1" as="geometry">
            <mxPoint x="299" y="246" as="sourcePoint" />
            <mxPoint x="387" y="246" as="targetPoint" />
          </mxGeometry>
        </mxCell>
        <mxCell id="NHKOM5S_4V-dGVnU0B9f-25" value="&lt;font style=&quot;font-size: 10px;&quot;&gt;1N API/Services&lt;/font&gt;" style="rounded=0;whiteSpace=wrap;html=1;" parent="1" vertex="1">
          <mxGeometry x="594" y="68" width="121" height="68" as="geometry" />
        </mxCell>
        <mxCell id="NHKOM5S_4V-dGVnU0B9f-26" value="" style="ellipse;whiteSpace=wrap;html=1;aspect=fixed;" parent="1" vertex="1">
          <mxGeometry x="329" y="238" width="20" height="20" as="geometry" />
        </mxCell>
        <mxCell id="NHKOM5S_4V-dGVnU0B9f-27" value="&lt;font style=&quot;font-size: 10px;&quot;&gt;2&lt;/font&gt;" style="text;html=1;strokeColor=none;fillColor=none;align=center;verticalAlign=middle;whiteSpace=wrap;rounded=0;" parent="1" vertex="1">
          <mxGeometry x="324" y="238" width="30" height="20" as="geometry" />
        </mxCell>
        <mxCell id="NHKOM5S_4V-dGVnU0B9f-28" value="getUserFQTV, Points,Tier, past and future travel" style="text;html=1;strokeColor=none;fillColor=none;align=left;verticalAlign=top;whiteSpace=wrap;rounded=0;fontSize=8;" parent="1" vertex="1">
          <mxGeometry x="301.5" y="193.75" width="58.5" height="53" as="geometry" />
        </mxCell>
        <mxCell id="NHKOM5S_4V-dGVnU0B9f-29" value="getDiscFare including GST&amp;nbsp;&lt;span style=&quot;background-color: initial;&quot;&gt;with&lt;/span&gt;&lt;div&gt;discount code applied is called&lt;/div&gt;" style="text;html=1;strokeColor=none;fillColor=none;align=left;verticalAlign=top;whiteSpace=wrap;rounded=0;fontSize=8;" parent="1" vertex="1">
          <mxGeometry x="543" y="207" width="120" height="55" as="geometry" />
        </mxCell>
        <mxCell id="NHKOM5S_4V-dGVnU0B9f-30" value="" style="endArrow=classic;html=1;rounded=0;" parent="1" edge="1">
          <mxGeometry width="50" height="50" relative="1" as="geometry">
            <mxPoint x="500" y="283" as="sourcePoint" />
            <mxPoint x="588" y="283" as="targetPoint" />
          </mxGeometry>
        </mxCell>
        <mxCell id="NHKOM5S_4V-dGVnU0B9f-31" value="" style="ellipse;whiteSpace=wrap;html=1;aspect=fixed;" parent="1" vertex="1">
          <mxGeometry x="530" y="270" width="20" height="20" as="geometry" />
        </mxCell>
        <mxCell id="NHKOM5S_4V-dGVnU0B9f-32" value="&lt;span style=&quot;font-size: 10px;&quot;&gt;6&lt;/span&gt;" style="text;html=1;strokeColor=none;fillColor=none;align=center;verticalAlign=middle;whiteSpace=wrap;rounded=0;" parent="1" vertex="1">
          <mxGeometry x="525" y="270" width="30" height="20" as="geometry" />
        </mxCell>
        <mxCell id="NHKOM5S_4V-dGVnU0B9f-33" value="Flights And Fare in cash including GST is called" style="text;html=1;strokeColor=none;fillColor=none;align=left;verticalAlign=top;whiteSpace=wrap;rounded=0;fontSize=8;" parent="1" vertex="1">
          <mxGeometry x="461.75" y="182" width="74.25" height="33" as="geometry" />
        </mxCell>
        <mxCell id="NHKOM5S_4V-dGVnU0B9f-34" value="" style="endArrow=classic;html=1;rounded=0;" parent="1" edge="1">
          <mxGeometry width="50" height="50" relative="1" as="geometry">
            <mxPoint x="303" y="318" as="sourcePoint" />
            <mxPoint x="391" y="318" as="targetPoint" />
          </mxGeometry>
        </mxCell>
        <mxCell id="NHKOM5S_4V-dGVnU0B9f-35" value="" style="ellipse;whiteSpace=wrap;html=1;aspect=fixed;" parent="1" vertex="1">
          <mxGeometry x="333" y="307" width="20" height="20" as="geometry" />
        </mxCell>
        <mxCell id="NHKOM5S_4V-dGVnU0B9f-36" value="&lt;font style=&quot;font-size: 10px;&quot;&gt;5&lt;/font&gt;" style="text;html=1;strokeColor=none;fillColor=none;align=center;verticalAlign=middle;whiteSpace=wrap;rounded=0;" parent="1" vertex="1">
          <mxGeometry x="328" y="307" width="30" height="20" as="geometry" />
        </mxCell>
        <mxCell id="NHKOM5S_4V-dGVnU0B9f-37" value="getFlights And Fare in Points is called" style="text;html=1;strokeColor=none;fillColor=none;align=left;verticalAlign=top;whiteSpace=wrap;rounded=0;fontSize=8;" parent="1" vertex="1">
          <mxGeometry x="301.5" y="267.5" width="48.5" height="33" as="geometry" />
        </mxCell>
        <mxCell id="NHKOM5S_4V-dGVnU0B9f-38" value="" style="endArrow=classic;html=1;rounded=0;" parent="1" edge="1">
          <mxGeometry width="50" height="50" relative="1" as="geometry">
            <mxPoint x="480" y="240" as="sourcePoint" />
            <mxPoint x="640" y="140" as="targetPoint" />
            <Array as="points">
              <mxPoint x="540" y="240" />
              <mxPoint x="540" y="200" />
              <mxPoint x="640" y="200" />
              <mxPoint x="640" y="160" />
            </Array>
          </mxGeometry>
        </mxCell>
        <mxCell id="NHKOM5S_4V-dGVnU0B9f-39" value="&lt;font style=&quot;font-size: 10px;&quot;&gt;RM&lt;/font&gt;" style="rounded=0;whiteSpace=wrap;html=1;" parent="1" vertex="1">
          <mxGeometry x="801" y="68" width="35" height="68" as="geometry" />
        </mxCell>
        <mxCell id="NHKOM5S_4V-dGVnU0B9f-44" value="" style="ellipse;whiteSpace=wrap;html=1;aspect=fixed;" parent="1" vertex="1">
          <mxGeometry x="525" y="169" width="20" height="20" as="geometry" />
        </mxCell>
        <mxCell id="NHKOM5S_4V-dGVnU0B9f-45" value="&lt;span style=&quot;font-size: 10px;&quot;&gt;6.1&lt;/span&gt;" style="text;html=1;strokeColor=none;fillColor=none;align=center;verticalAlign=middle;whiteSpace=wrap;rounded=0;" parent="1" vertex="1">
          <mxGeometry x="521" y="169" width="30" height="20" as="geometry" />
        </mxCell>
        <mxCell id="NHKOM5S_4V-dGVnU0B9f-46" value="getDiscountFactor and Code" style="text;html=1;strokeColor=none;fillColor=none;align=left;verticalAlign=top;whiteSpace=wrap;rounded=0;fontSize=8;" parent="1" vertex="1">
          <mxGeometry x="510" y="282" width="58.5" height="33" as="geometry" />
        </mxCell>
        <mxCell id="NHKOM5S_4V-dGVnU0B9f-47" value="" style="ellipse;whiteSpace=wrap;html=1;aspect=fixed;" parent="1" vertex="1">
          <mxGeometry x="550" y="191" width="20" height="20" as="geometry" />
        </mxCell>
        <mxCell id="NHKOM5S_4V-dGVnU0B9f-48" value="&lt;span style=&quot;font-size: 10px;&quot;&gt;9&lt;/span&gt;" style="text;html=1;strokeColor=none;fillColor=none;align=center;verticalAlign=middle;whiteSpace=wrap;rounded=0;" parent="1" vertex="1">
          <mxGeometry x="545" y="191" width="30" height="20" as="geometry" />
        </mxCell>
        <mxCell id="NHKOM5S_4V-dGVnU0B9f-49" value="" style="endArrow=classic;html=1;rounded=0;" parent="1" edge="1">
          <mxGeometry width="50" height="50" relative="1" as="geometry">
            <mxPoint x="605" y="141" as="sourcePoint" />
            <mxPoint x="440" y="240" as="targetPoint" />
            <Array as="points">
              <mxPoint x="605" y="160" />
              <mxPoint x="520" y="160" />
              <mxPoint x="440" y="160" />
            </Array>
          </mxGeometry>
        </mxCell>
        <mxCell id="NHKOM5S_4V-dGVnU0B9f-50" value="" style="ellipse;whiteSpace=wrap;html=1;aspect=fixed;" parent="1" vertex="1">
          <mxGeometry x="485" y="150" width="20" height="20" as="geometry" />
        </mxCell>
        <mxCell id="NHKOM5S_4V-dGVnU0B9f-51" value="&lt;font style=&quot;font-size: 10px;&quot;&gt;7.1&lt;/font&gt;" style="text;html=1;strokeColor=none;fillColor=none;align=center;verticalAlign=middle;whiteSpace=wrap;rounded=0;" parent="1" vertex="1">
          <mxGeometry x="480" y="150" width="30" height="20" as="geometry" />
        </mxCell>
        <mxCell id="NHKOM5S_4V-dGVnU0B9f-52" value="Flights &amp;amp; Fare are returned" style="text;html=1;strokeColor=none;fillColor=none;align=left;verticalAlign=top;whiteSpace=wrap;rounded=0;fontSize=8;" parent="1" vertex="1">
          <mxGeometry x="514.75" y="120.5" width="33.5" height="39.25" as="geometry" />
        </mxCell>
        <mxCell id="NHKOM5S_4V-dGVnU0B9f-53" value="Forecast Seat factor file is fetched daily" style="text;html=1;strokeColor=none;fillColor=none;align=left;verticalAlign=top;whiteSpace=wrap;rounded=0;fontSize=8;" parent="1" vertex="1">
          <mxGeometry x="749" y="195" width="52" height="55" as="geometry" />
        </mxCell>
        <mxCell id="NHKOM5S_4V-dGVnU0B9f-54" value="" style="endArrow=classic;html=1;rounded=0;" parent="1" edge="1">
          <mxGeometry width="50" height="50" relative="1" as="geometry">
            <mxPoint x="693" y="295" as="sourcePoint" />
            <mxPoint x="680" y="328" as="targetPoint" />
            <Array as="points">
              <mxPoint x="748" y="295" />
              <mxPoint x="748" y="372" />
              <mxPoint x="680" y="372" />
              <mxPoint x="680" y="350" />
            </Array>
          </mxGeometry>
        </mxCell>
        <mxCell id="NHKOM5S_4V-dGVnU0B9f-55" value="" style="ellipse;whiteSpace=wrap;html=1;aspect=fixed;" parent="1" vertex="1">
          <mxGeometry x="738" y="321" width="20" height="20" as="geometry" />
        </mxCell>
        <mxCell id="NHKOM5S_4V-dGVnU0B9f-56" value="&lt;font style=&quot;font-size: 10px;&quot;&gt;7&lt;/font&gt;" style="text;html=1;strokeColor=none;fillColor=none;align=center;verticalAlign=middle;whiteSpace=wrap;rounded=0;" parent="1" vertex="1">
          <mxGeometry x="733" y="321" width="30" height="20" as="geometry" />
        </mxCell>
        <mxCell id="NHKOM5S_4V-dGVnU0B9f-61" value="Engine refers to static table of Discount based on seat factor and no of days of advance booking" style="text;html=1;strokeColor=none;fillColor=none;align=left;verticalAlign=top;whiteSpace=wrap;rounded=0;fontSize=8;" parent="1" vertex="1">
          <mxGeometry x="765" y="300" width="52" height="94" as="geometry" />
        </mxCell>
        <mxCell id="NHKOM5S_4V-dGVnU0B9f-62" value="Engine picks the corresponding disc code from the cache" style="text;html=1;strokeColor=none;fillColor=none;align=left;verticalAlign=top;whiteSpace=wrap;rounded=0;fontSize=8;" parent="1" vertex="1">
          <mxGeometry x="680" y="380" width="62" height="50" as="geometry" />
        </mxCell>
        <mxCell id="NHKOM5S_4V-dGVnU0B9f-63" value="" style="endArrow=classic;html=1;rounded=0;" parent="1" edge="1">
          <mxGeometry width="50" height="50" relative="1" as="geometry">
            <mxPoint x="490" y="330" as="sourcePoint" />
            <mxPoint x="430" y="330" as="targetPoint" />
            <Array as="points">
              <mxPoint x="490" y="390" />
              <mxPoint x="430" y="390" />
            </Array>
          </mxGeometry>
        </mxCell>
        <mxCell id="NHKOM5S_4V-dGVnU0B9f-64" value="" style="ellipse;whiteSpace=wrap;html=1;aspect=fixed;" parent="1" vertex="1">
          <mxGeometry x="450" y="378" width="20" height="20" as="geometry" />
        </mxCell>
        <mxCell id="NHKOM5S_4V-dGVnU0B9f-65" value="&lt;font style=&quot;font-size: 10px;&quot;&gt;11&lt;/font&gt;" style="text;html=1;strokeColor=none;fillColor=none;align=center;verticalAlign=middle;whiteSpace=wrap;rounded=0;" parent="1" vertex="1">
          <mxGeometry x="445" y="378" width="30" height="20" as="geometry" />
        </mxCell>
        <mxCell id="NHKOM5S_4V-dGVnU0B9f-66" value="The flights and fare in points&amp;nbsp; and taxes are returned" style="text;html=1;strokeColor=none;fillColor=none;align=left;verticalAlign=top;whiteSpace=wrap;rounded=0;fontSize=8;" parent="1" vertex="1">
          <mxGeometry x="396" y="396" width="58.5" height="33" as="geometry" />
        </mxCell>
        <mxCell id="NHKOM5S_4V-dGVnU0B9f-67" value="" style="endArrow=classic;html=1;rounded=0;" parent="1" edge="1">
          <mxGeometry width="50" height="50" relative="1" as="geometry">
            <mxPoint x="400" y="330" as="sourcePoint" />
            <mxPoint x="300" y="370" as="targetPoint" />
            <Array as="points">
              <mxPoint x="400" y="370" />
              <mxPoint x="330" y="370" />
            </Array>
          </mxGeometry>
        </mxCell>
        <mxCell id="NHKOM5S_4V-dGVnU0B9f-68" value="" style="ellipse;whiteSpace=wrap;html=1;aspect=fixed;" parent="1" vertex="1">
          <mxGeometry x="325" y="359" width="20" height="20" as="geometry" />
        </mxCell>
        <mxCell id="NHKOM5S_4V-dGVnU0B9f-69" value="&lt;font style=&quot;font-size: 10px;&quot;&gt;12&lt;/font&gt;" style="text;html=1;strokeColor=none;fillColor=none;align=center;verticalAlign=middle;whiteSpace=wrap;rounded=0;" parent="1" vertex="1">
          <mxGeometry x="320" y="359" width="30" height="20" as="geometry" />
        </mxCell>
        <mxCell id="NHKOM5S_4V-dGVnU0B9f-70" value="The flights and fare in points is returned" style="text;html=1;strokeColor=none;fillColor=none;align=left;verticalAlign=top;whiteSpace=wrap;rounded=0;fontSize=8;" parent="1" vertex="1">
          <mxGeometry x="310.75" y="380" width="58.5" height="33" as="geometry" />
        </mxCell>
        <mxCell id="NHKOM5S_4V-dGVnU0B9f-71" value="" style="endArrow=classic;html=1;rounded=0;" parent="1" edge="1">
          <mxGeometry width="50" height="50" relative="1" as="geometry">
            <mxPoint x="204" y="322" as="sourcePoint" />
            <mxPoint x="88" y="262" as="targetPoint" />
            <Array as="points">
              <mxPoint x="171" y="322" />
              <mxPoint x="88" y="322" />
            </Array>
          </mxGeometry>
        </mxCell>
        <mxCell id="NHKOM5S_4V-dGVnU0B9f-72" value="" style="ellipse;whiteSpace=wrap;html=1;aspect=fixed;" parent="1" vertex="1">
          <mxGeometry x="144" y="312" width="20" height="20" as="geometry" />
        </mxCell>
        <mxCell id="NHKOM5S_4V-dGVnU0B9f-73" value="&lt;font style=&quot;font-size: 10px;&quot;&gt;13&lt;/font&gt;" style="text;html=1;strokeColor=none;fillColor=none;align=center;verticalAlign=middle;whiteSpace=wrap;rounded=0;" parent="1" vertex="1">
          <mxGeometry x="139" y="312" width="30" height="20" as="geometry" />
        </mxCell>
        <mxCell id="NHKOM5S_4V-dGVnU0B9f-74" value="The flights and fare in points is returned" style="text;html=1;strokeColor=none;fillColor=none;align=left;verticalAlign=top;whiteSpace=wrap;rounded=0;fontSize=8;" parent="1" vertex="1">
          <mxGeometry x="129.75" y="329" width="58.5" height="33" as="geometry" />
        </mxCell>
        <mxCell id="NHKOM5S_4V-dGVnU0B9f-75" value="" style="endArrow=classic;html=1;rounded=0;" parent="1" edge="1">
          <mxGeometry width="50" height="50" relative="1" as="geometry">
            <mxPoint x="413" y="150" as="sourcePoint" />
            <mxPoint x="413" y="240" as="targetPoint" />
            <Array as="points">
              <mxPoint x="413" y="150" />
            </Array>
          </mxGeometry>
        </mxCell>
        <mxCell id="NHKOM5S_4V-dGVnU0B9f-76" value="User&#39;s FQTV, Points,Tier, bookings are returned" style="text;html=1;strokeColor=none;fillColor=none;align=left;verticalAlign=top;whiteSpace=wrap;rounded=0;fontSize=8;" parent="1" vertex="1">
          <mxGeometry x="365" y="145.75" width="46" height="52" as="geometry" />
        </mxCell>
        <mxCell id="NHKOM5S_4V-dGVnU0B9f-77" value="" style="ellipse;whiteSpace=wrap;html=1;aspect=fixed;" parent="1" vertex="1">
          <mxGeometry x="403" y="203" width="20" height="20" as="geometry" />
        </mxCell>
        <mxCell id="NHKOM5S_4V-dGVnU0B9f-78" value="&lt;font style=&quot;font-size: 10px;&quot;&gt;3&lt;/font&gt;" style="text;html=1;strokeColor=none;fillColor=none;align=center;verticalAlign=middle;whiteSpace=wrap;rounded=0;" parent="1" vertex="1">
          <mxGeometry x="398" y="203" width="30" height="20" as="geometry" />
        </mxCell>
        <mxCell id="NHKOM5S_4V-dGVnU0B9f-79" value="" style="endArrow=classic;html=1;rounded=0;entryX=1;entryY=0.25;entryDx=0;entryDy=0;exitX=1;exitY=0.25;exitDx=0;exitDy=0;" parent="1" source="NHKOM5S_4V-dGVnU0B9f-23" edge="1">
          <mxGeometry width="50" height="50" relative="1" as="geometry">
            <mxPoint x="817" y="157" as="sourcePoint" />
            <mxPoint x="820" y="140" as="targetPoint" />
            <Array as="points">
              <mxPoint x="820" y="266" />
            </Array>
          </mxGeometry>
        </mxCell>
        <mxCell id="NHKOM5S_4V-dGVnU0B9f-80" value="&lt;font style=&quot;font-size: 10px;&quot;&gt;Pre&lt;/font&gt;" style="ellipse;whiteSpace=wrap;html=1;aspect=fixed;" parent="1" vertex="1">
          <mxGeometry x="809" y="207" width="20" height="20" as="geometry" />
        </mxCell>
        <mxCell id="NHKOM5S_4V-dGVnU0B9f-81" value="&amp;nbsp;applies the fair value conversion to calculate the disc fare in points" style="text;html=1;strokeColor=none;fillColor=none;align=left;verticalAlign=top;whiteSpace=wrap;rounded=0;fontSize=8;" parent="1" vertex="1">
          <mxGeometry x="462.75" y="396" width="52" height="94" as="geometry" />
        </mxCell>
        <mxCell id="2raeTAF3LF-SIuXbgyYo-2" value="" style="endArrow=classic;html=1;rounded=0;" parent="1" edge="1">
          <mxGeometry width="50" height="50" relative="1" as="geometry">
            <mxPoint x="671" y="150" as="sourcePoint" />
            <mxPoint x="501" y="263" as="targetPoint" />
            <Array as="points">
              <mxPoint x="671" y="183" />
              <mxPoint x="671" y="240" />
              <mxPoint x="567" y="240" />
              <mxPoint x="567" y="263" />
            </Array>
          </mxGeometry>
        </mxCell>
        <mxCell id="2raeTAF3LF-SIuXbgyYo-3" value="Flights &amp;amp; disc fares including GST are returned" style="text;html=1;strokeColor=none;fillColor=none;align=left;verticalAlign=top;whiteSpace=wrap;rounded=0;fontSize=8;" parent="1" vertex="1">
          <mxGeometry x="683" y="145.75" width="45.25" height="33" as="geometry" />
        </mxCell>
        <mxCell id="2raeTAF3LF-SIuXbgyYo-5" value="" style="endArrow=classic;html=1;rounded=0;entryX=1;entryY=1;entryDx=0;entryDy=0;" parent="1" edge="1">
          <mxGeometry width="50" height="50" relative="1" as="geometry">
            <mxPoint x="622" y="330" as="sourcePoint" />
            <mxPoint x="497" y="320" as="targetPoint" />
            <Array as="points">
              <mxPoint x="622" y="350" />
              <mxPoint x="522" y="350" />
              <mxPoint x="522" y="320" />
            </Array>
          </mxGeometry>
        </mxCell>
        <mxCell id="2raeTAF3LF-SIuXbgyYo-6" value="" style="ellipse;whiteSpace=wrap;html=1;aspect=fixed;" parent="1" vertex="1">
          <mxGeometry x="559" y="338" width="20" height="20" as="geometry" />
        </mxCell>
        <mxCell id="2raeTAF3LF-SIuXbgyYo-7" value="&lt;span style=&quot;font-size: 10px;&quot;&gt;8&lt;/span&gt;" style="text;html=1;strokeColor=none;fillColor=none;align=center;verticalAlign=middle;whiteSpace=wrap;rounded=0;" parent="1" vertex="1">
          <mxGeometry x="554" y="338" width="30" height="20" as="geometry" />
        </mxCell>
        <mxCell id="2raeTAF3LF-SIuXbgyYo-8" value="DiscountFactors and Disc Codes are returned" style="text;html=1;strokeColor=none;fillColor=none;align=left;verticalAlign=top;whiteSpace=wrap;rounded=0;fontSize=8;" parent="1" vertex="1">
          <mxGeometry x="548.25" y="358" width="58.5" height="33" as="geometry" />
        </mxCell>
        <mxCell id="2raeTAF3LF-SIuXbgyYo-9" value="&lt;font style=&quot;font-size: 10px;&quot;&gt;10&lt;/font&gt;" style="ellipse;whiteSpace=wrap;html=1;aspect=fixed;" parent="1" vertex="1">
          <mxGeometry x="658" y="175" width="20" height="20" as="geometry" />
        </mxCell>
      </root>
    </mxGraphModel>
  </diagram>
  <diagram id="nsvEIveBiJCa4OcWRLMD" name="Book">
    <mxGraphModel dx="1034" dy="446" grid="1" gridSize="10" guides="1" tooltips="1" connect="1" arrows="1" fold="1" page="1" pageScale="1" pageWidth="850" pageHeight="1100" math="0" shadow="0">
      <root>
        <mxCell id="0" />
        <mxCell id="1" parent="0" />
        <mxCell id="w05_cwSDtQMUngxFDME1-2" value="" style="verticalLabelPosition=bottom;html=1;verticalAlign=top;align=center;strokeColor=none;fillColor=#00BEF2;shape=mxgraph.azure.user;" parent="1" vertex="1">
          <mxGeometry x="8" y="190" width="30" height="20" as="geometry" />
        </mxCell>
        <mxCell id="w05_cwSDtQMUngxFDME1-3" value="" style="rounded=0;whiteSpace=wrap;html=1;" parent="1" vertex="1">
          <mxGeometry x="227" y="40" width="60" height="400" as="geometry" />
        </mxCell>
        <mxCell id="w05_cwSDtQMUngxFDME1-4" value="" style="verticalLabelPosition=bottom;html=1;verticalAlign=top;align=center;strokeColor=none;fillColor=#00BEF2;shape=mxgraph.azure.website_generic;pointerEvents=1;" parent="1" vertex="1">
          <mxGeometry x="86" y="178.75" width="50" height="42.5" as="geometry" />
        </mxCell>
        <mxCell id="w05_cwSDtQMUngxFDME1-5" value="" style="sketch=0;points=[[0,0,0],[0.25,0,0],[0.5,0,0],[0.75,0,0],[1,0,0],[0,1,0],[0.25,1,0],[0.5,1,0],[0.75,1,0],[1,1,0],[0,0.25,0],[0,0.5,0],[0,0.75,0],[1,0.25,0],[1,0.5,0],[1,0.75,0]];outlineConnect=0;fontColor=#232F3E;fillColor=#E7157B;strokeColor=#ffffff;dashed=0;verticalLabelPosition=bottom;verticalAlign=top;align=center;html=1;fontSize=12;fontStyle=0;aspect=fixed;shape=mxgraph.aws4.resourceIcon;resIcon=mxgraph.aws4.api_gateway;" parent="1" vertex="1">
          <mxGeometry x="237" y="219.75" width="38" height="38" as="geometry" />
        </mxCell>
        <mxCell id="w05_cwSDtQMUngxFDME1-6" value="" style="endArrow=classic;html=1;rounded=0;" parent="1" edge="1">
          <mxGeometry width="50" height="50" relative="1" as="geometry">
            <mxPoint x="48" y="207.75" as="sourcePoint" />
            <mxPoint x="78" y="208" as="targetPoint" />
          </mxGeometry>
        </mxCell>
        <mxCell id="w05_cwSDtQMUngxFDME1-7" value="Book&lt;br&gt;I) Redeem Points" style="text;html=1;strokeColor=none;fillColor=none;align=left;verticalAlign=top;whiteSpace=wrap;rounded=0;fontSize=8;" parent="1" vertex="1">
          <mxGeometry x="140" y="171" width="69" height="47" as="geometry" />
        </mxCell>
        <mxCell id="w05_cwSDtQMUngxFDME1-8" value="" style="endArrow=classic;html=1;rounded=0;" parent="1" edge="1">
          <mxGeometry width="50" height="50" relative="1" as="geometry">
            <mxPoint x="107" y="219" as="sourcePoint" />
            <mxPoint x="215" y="252" as="targetPoint" />
            <Array as="points">
              <mxPoint x="107" y="252" />
            </Array>
          </mxGeometry>
        </mxCell>
        <mxCell id="w05_cwSDtQMUngxFDME1-9" value="" style="ellipse;whiteSpace=wrap;html=1;aspect=fixed;" parent="1" vertex="1">
          <mxGeometry x="97" y="226" width="20" height="20" as="geometry" />
        </mxCell>
        <mxCell id="w05_cwSDtQMUngxFDME1-10" value="&lt;font style=&quot;font-size: 10px;&quot;&gt;17&lt;/font&gt;" style="text;html=1;strokeColor=none;fillColor=none;align=center;verticalAlign=middle;whiteSpace=wrap;rounded=0;" parent="1" vertex="1">
          <mxGeometry x="92" y="226" width="30" height="20" as="geometry" />
        </mxCell>
        <mxCell id="w05_cwSDtQMUngxFDME1-11" value="User chooses a book a flight using points" style="text;html=1;strokeColor=none;fillColor=none;align=left;verticalAlign=top;whiteSpace=wrap;rounded=0;fontSize=8;" parent="1" vertex="1">
          <mxGeometry x="132.5" y="253.5" width="58.5" height="38.5" as="geometry" />
        </mxCell>
        <mxCell id="w05_cwSDtQMUngxFDME1-12" value="&lt;font style=&quot;font-size: 10px;&quot;&gt;LMS Services&lt;/font&gt;" style="rounded=0;whiteSpace=wrap;html=1;" parent="1" vertex="1">
          <mxGeometry x="340" y="40" width="99" height="68" as="geometry" />
        </mxCell>
        <mxCell id="w05_cwSDtQMUngxFDME1-13" value="&lt;font style=&quot;font-size: 10px;&quot;&gt;Skyplus Services&lt;/font&gt;" style="rounded=0;whiteSpace=wrap;html=1;" parent="1" vertex="1">
          <mxGeometry x="396" y="248" width="99" height="72" as="geometry" />
        </mxCell>
        <mxCell id="w05_cwSDtQMUngxFDME1-14" value="&lt;font style=&quot;font-size: 10px;&quot;&gt;Payment Gateway&lt;/font&gt;" style="rounded=0;whiteSpace=wrap;html=1;" parent="1" vertex="1">
          <mxGeometry x="597" y="248" width="88" height="72" as="geometry" />
        </mxCell>
        <mxCell id="w05_cwSDtQMUngxFDME1-15" value="&lt;font style=&quot;font-size: 10px;&quot;&gt;1N API/Services&lt;/font&gt;" style="rounded=0;whiteSpace=wrap;html=1;" parent="1" vertex="1">
          <mxGeometry x="594" y="39" width="121" height="68" as="geometry" />
        </mxCell>
        <mxCell id="w05_cwSDtQMUngxFDME1-16" value="" style="endArrow=classic;html=1;rounded=0;" parent="1" edge="1">
          <mxGeometry width="50" height="50" relative="1" as="geometry">
            <mxPoint x="500" y="279" as="sourcePoint" />
            <mxPoint x="588" y="279" as="targetPoint" />
          </mxGeometry>
        </mxCell>
        <mxCell id="w05_cwSDtQMUngxFDME1-17" value="" style="ellipse;whiteSpace=wrap;html=1;aspect=fixed;" parent="1" vertex="1">
          <mxGeometry x="530" y="268" width="20" height="20" as="geometry" />
        </mxCell>
        <mxCell id="w05_cwSDtQMUngxFDME1-18" value="&lt;span style=&quot;font-size: 10px;&quot;&gt;20&lt;/span&gt;" style="text;html=1;strokeColor=none;fillColor=none;align=center;verticalAlign=middle;whiteSpace=wrap;rounded=0;" parent="1" vertex="1">
          <mxGeometry x="525" y="268" width="30" height="20" as="geometry" />
        </mxCell>
        <mxCell id="w05_cwSDtQMUngxFDME1-20" value="" style="endArrow=classic;html=1;rounded=0;" parent="1" edge="1">
          <mxGeometry width="50" height="50" relative="1" as="geometry">
            <mxPoint x="295" y="278" as="sourcePoint" />
            <mxPoint x="383" y="278" as="targetPoint" />
          </mxGeometry>
        </mxCell>
        <mxCell id="w05_cwSDtQMUngxFDME1-21" value="" style="ellipse;whiteSpace=wrap;html=1;aspect=fixed;" parent="1" vertex="1">
          <mxGeometry x="325" y="268" width="20" height="20" as="geometry" />
        </mxCell>
        <mxCell id="w05_cwSDtQMUngxFDME1-22" value="&lt;font style=&quot;font-size: 10px;&quot;&gt;18&lt;/font&gt;" style="text;html=1;strokeColor=none;fillColor=none;align=center;verticalAlign=middle;whiteSpace=wrap;rounded=0;" parent="1" vertex="1">
          <mxGeometry x="320" y="268" width="30" height="20" as="geometry" />
        </mxCell>
        <mxCell id="w05_cwSDtQMUngxFDME1-23" value="bookFlight with Points is called" style="text;html=1;strokeColor=none;fillColor=none;align=left;verticalAlign=top;whiteSpace=wrap;rounded=0;fontSize=8;" parent="1" vertex="1">
          <mxGeometry x="308.75" y="239" width="58.5" height="33" as="geometry" />
        </mxCell>
        <mxCell id="w05_cwSDtQMUngxFDME1-28" value="PayCashPart (Taxes) is called" style="text;html=1;strokeColor=none;fillColor=none;align=left;verticalAlign=top;whiteSpace=wrap;rounded=0;fontSize=8;" parent="1" vertex="1">
          <mxGeometry x="513.75" y="283" width="58.5" height="33" as="geometry" />
        </mxCell>
        <mxCell id="w05_cwSDtQMUngxFDME1-31" value="" style="endArrow=classic;html=1;rounded=0;" parent="1" edge="1">
          <mxGeometry width="50" height="50" relative="1" as="geometry">
            <mxPoint x="450" y="328" as="sourcePoint" />
            <mxPoint x="630" y="372" as="targetPoint" />
            <Array as="points">
              <mxPoint x="450" y="372" />
              <mxPoint x="605" y="372" />
            </Array>
          </mxGeometry>
        </mxCell>
        <mxCell id="w05_cwSDtQMUngxFDME1-32" value="" style="ellipse;whiteSpace=wrap;html=1;aspect=fixed;" parent="1" vertex="1">
          <mxGeometry x="519" y="360" width="20" height="20" as="geometry" />
        </mxCell>
        <mxCell id="w05_cwSDtQMUngxFDME1-33" value="&lt;font style=&quot;font-size: 10px;&quot;&gt;23&lt;/font&gt;" style="text;html=1;strokeColor=none;fillColor=none;align=center;verticalAlign=middle;whiteSpace=wrap;rounded=0;" parent="1" vertex="1">
          <mxGeometry x="514" y="360" width="30" height="20" as="geometry" />
        </mxCell>
        <mxCell id="w05_cwSDtQMUngxFDME1-34" value="PNR, original price, disc price, seat factor and conversion factor is saved" style="text;html=1;strokeColor=none;fillColor=none;align=left;verticalAlign=top;whiteSpace=wrap;rounded=0;fontSize=8;" parent="1" vertex="1">
          <mxGeometry x="480" y="380" width="97.5" height="40" as="geometry" />
        </mxCell>
        <mxCell id="w05_cwSDtQMUngxFDME1-35" value="" style="endArrow=classic;html=1;rounded=0;" parent="1" edge="1">
          <mxGeometry width="50" height="50" relative="1" as="geometry">
            <mxPoint x="385" y="306" as="sourcePoint" />
            <mxPoint x="297" y="306" as="targetPoint" />
            <Array as="points">
              <mxPoint x="352" y="306" />
              <mxPoint x="319" y="306" />
            </Array>
          </mxGeometry>
        </mxCell>
        <mxCell id="w05_cwSDtQMUngxFDME1-36" value="" style="ellipse;whiteSpace=wrap;html=1;aspect=fixed;" parent="1" vertex="1">
          <mxGeometry x="325" y="296" width="20" height="20" as="geometry" />
        </mxCell>
        <mxCell id="w05_cwSDtQMUngxFDME1-37" value="&lt;font style=&quot;font-size: 10px;&quot;&gt;24.1&lt;/font&gt;" style="text;html=1;strokeColor=none;fillColor=none;align=center;verticalAlign=middle;whiteSpace=wrap;rounded=0;" parent="1" vertex="1">
          <mxGeometry x="320" y="296" width="30" height="20" as="geometry" />
        </mxCell>
        <mxCell id="w05_cwSDtQMUngxFDME1-38" value="Itinerary with PNR is returned" style="text;html=1;strokeColor=none;fillColor=none;align=left;verticalAlign=top;whiteSpace=wrap;rounded=0;fontSize=8;" parent="1" vertex="1">
          <mxGeometry x="309.75" y="318" width="58.5" height="33" as="geometry" />
        </mxCell>
        <mxCell id="w05_cwSDtQMUngxFDME1-39" value="" style="endArrow=classic;html=1;rounded=0;" parent="1" edge="1">
          <mxGeometry width="50" height="50" relative="1" as="geometry">
            <mxPoint x="204" y="322" as="sourcePoint" />
            <mxPoint x="88" y="262" as="targetPoint" />
            <Array as="points">
              <mxPoint x="171" y="322" />
              <mxPoint x="88" y="322" />
            </Array>
          </mxGeometry>
        </mxCell>
        <mxCell id="w05_cwSDtQMUngxFDME1-40" value="" style="ellipse;whiteSpace=wrap;html=1;aspect=fixed;" parent="1" vertex="1">
          <mxGeometry x="144" y="312" width="20" height="20" as="geometry" />
        </mxCell>
        <mxCell id="w05_cwSDtQMUngxFDME1-41" value="&lt;font style=&quot;font-size: 10px;&quot;&gt;25&lt;/font&gt;" style="text;html=1;strokeColor=none;fillColor=none;align=center;verticalAlign=middle;whiteSpace=wrap;rounded=0;" parent="1" vertex="1">
          <mxGeometry x="139" y="312" width="30" height="20" as="geometry" />
        </mxCell>
        <mxCell id="w05_cwSDtQMUngxFDME1-42" value="Itinerary" style="text;html=1;strokeColor=none;fillColor=none;align=left;verticalAlign=top;whiteSpace=wrap;rounded=0;fontSize=8;" parent="1" vertex="1">
          <mxGeometry x="129.75" y="329" width="58.5" height="33" as="geometry" />
        </mxCell>
        <mxCell id="IUlN5LjIvORy5t-scPod-1" value="" style="endArrow=classic;html=1;rounded=0;" parent="1" edge="1">
          <mxGeometry width="50" height="50" relative="1" as="geometry">
            <mxPoint x="460" y="240" as="sourcePoint" />
            <mxPoint x="580" y="80" as="targetPoint" />
            <Array as="points">
              <mxPoint x="460" y="200" />
              <mxPoint x="460" y="170" />
              <mxPoint x="540" y="170" />
              <mxPoint x="540" y="80" />
            </Array>
          </mxGeometry>
        </mxCell>
        <mxCell id="IUlN5LjIvORy5t-scPod-2" value="" style="ellipse;whiteSpace=wrap;html=1;aspect=fixed;" parent="1" vertex="1">
          <mxGeometry x="495" y="158" width="20" height="20" as="geometry" />
        </mxCell>
        <mxCell id="IUlN5LjIvORy5t-scPod-3" value="&lt;font style=&quot;font-size: 10px;&quot;&gt;21&lt;/font&gt;" style="text;html=1;strokeColor=none;fillColor=none;align=center;verticalAlign=middle;whiteSpace=wrap;rounded=0;" parent="1" vertex="1">
          <mxGeometry x="490" y="158" width="30" height="20" as="geometry" />
        </mxCell>
        <mxCell id="IUlN5LjIvORy5t-scPod-4" value="CreateBooking" style="text;html=1;strokeColor=none;fillColor=none;align=left;verticalAlign=top;whiteSpace=wrap;rounded=0;fontSize=8;" parent="1" vertex="1">
          <mxGeometry x="475.75" y="100" width="58.5" height="33" as="geometry" />
        </mxCell>
        <mxCell id="WMAwAOBkDRYZOl5rqW0l-2" value="" style="endArrow=classic;html=1;rounded=0;" parent="1" edge="1">
          <mxGeometry width="50" height="50" relative="1" as="geometry">
            <mxPoint x="680" y="120" as="sourcePoint" />
            <mxPoint x="480" y="240" as="targetPoint" />
            <Array as="points">
              <mxPoint x="680" y="160" />
              <mxPoint x="680" y="200" />
              <mxPoint x="480" y="200" />
            </Array>
          </mxGeometry>
        </mxCell>
        <mxCell id="WMAwAOBkDRYZOl5rqW0l-3" value="" style="ellipse;whiteSpace=wrap;html=1;aspect=fixed;" parent="1" vertex="1">
          <mxGeometry x="549" y="190" width="20" height="20" as="geometry" />
        </mxCell>
        <mxCell id="WMAwAOBkDRYZOl5rqW0l-4" value="&lt;font style=&quot;font-size: 10px;&quot;&gt;22&lt;/font&gt;" style="text;html=1;strokeColor=none;fillColor=none;align=center;verticalAlign=middle;whiteSpace=wrap;rounded=0;" parent="1" vertex="1">
          <mxGeometry x="544" y="190" width="30" height="20" as="geometry" />
        </mxCell>
        <mxCell id="WMAwAOBkDRYZOl5rqW0l-5" value="PNR is generated" style="text;html=1;strokeColor=none;fillColor=none;align=left;verticalAlign=top;whiteSpace=wrap;rounded=0;fontSize=8;" parent="1" vertex="1">
          <mxGeometry x="569" y="203.75" width="58.5" height="33" as="geometry" />
        </mxCell>
        <mxCell id="WMAwAOBkDRYZOl5rqW0l-6" value="Record system" style="rounded=0;whiteSpace=wrap;html=1;" parent="1" vertex="1">
          <mxGeometry x="640" y="346" width="80" height="60" as="geometry" />
        </mxCell>
        <mxCell id="WMAwAOBkDRYZOl5rqW0l-7" value="May be offer engine or 1N (Navitaire)" style="text;html=1;strokeColor=none;fillColor=none;align=left;verticalAlign=top;whiteSpace=wrap;rounded=0;fontSize=8;" parent="1" vertex="1">
          <mxGeometry x="636" y="409" width="97.5" height="40" as="geometry" />
        </mxCell>
        <mxCell id="WMAwAOBkDRYZOl5rqW0l-8" value="" style="endArrow=classic;html=1;rounded=0;" parent="1" edge="1">
          <mxGeometry width="50" height="50" relative="1" as="geometry">
            <mxPoint x="400" y="240" as="sourcePoint" />
            <mxPoint x="368" y="120" as="targetPoint" />
            <Array as="points">
              <mxPoint x="368" y="210" />
            </Array>
          </mxGeometry>
        </mxCell>
        <mxCell id="WMAwAOBkDRYZOl5rqW0l-9" value="Booking information is saved in LMS. Points debited" style="text;html=1;strokeColor=none;fillColor=none;align=left;verticalAlign=top;whiteSpace=wrap;rounded=0;fontSize=8;" parent="1" vertex="1">
          <mxGeometry x="414" y="115.75" width="66" height="60.25" as="geometry" />
        </mxCell>
        <mxCell id="WMAwAOBkDRYZOl5rqW0l-10" value="" style="endArrow=classic;html=1;rounded=0;" parent="1" edge="1">
          <mxGeometry width="50" height="50" relative="1" as="geometry">
            <mxPoint x="399" y="226" as="sourcePoint" />
            <mxPoint x="400" y="120" as="targetPoint" />
            <Array as="points">
              <mxPoint x="399" y="206" />
            </Array>
          </mxGeometry>
        </mxCell>
        <mxCell id="WMAwAOBkDRYZOl5rqW0l-11" value="" style="ellipse;whiteSpace=wrap;html=1;aspect=fixed;" parent="1" vertex="1">
          <mxGeometry x="389" y="164" width="20" height="20" as="geometry" />
        </mxCell>
        <mxCell id="WMAwAOBkDRYZOl5rqW0l-12" value="&lt;font style=&quot;font-size: 10px;&quot;&gt;24.2&lt;/font&gt;" style="text;html=1;strokeColor=none;fillColor=none;align=center;verticalAlign=middle;whiteSpace=wrap;rounded=0;" parent="1" vertex="1">
          <mxGeometry x="384" y="164" width="30" height="20" as="geometry" />
        </mxCell>
        <mxCell id="WMAwAOBkDRYZOl5rqW0l-14" value="" style="ellipse;whiteSpace=wrap;html=1;aspect=fixed;" parent="1" vertex="1">
          <mxGeometry x="358" y="176" width="20" height="20" as="geometry" />
        </mxCell>
        <mxCell id="WMAwAOBkDRYZOl5rqW0l-15" value="&lt;font style=&quot;font-size: 10px;&quot;&gt;19&lt;/font&gt;" style="text;html=1;strokeColor=none;fillColor=none;align=center;verticalAlign=middle;whiteSpace=wrap;rounded=0;" parent="1" vertex="1">
          <mxGeometry x="353" y="176" width="30" height="20" as="geometry" />
        </mxCell>
        <mxCell id="WMAwAOBkDRYZOl5rqW0l-17" value="Points on hold is caled" style="text;html=1;strokeColor=none;fillColor=none;align=left;verticalAlign=top;whiteSpace=wrap;rounded=0;fontSize=8;" parent="1" vertex="1">
          <mxGeometry x="301.75" y="165" width="58.5" height="33" as="geometry" />
        </mxCell>
        <mxCell id="WMAwAOBkDRYZOl5rqW0l-18" value="PNR is marked as non-claimable" style="text;html=1;strokeColor=none;fillColor=none;align=left;verticalAlign=top;whiteSpace=wrap;rounded=0;fontSize=8;" parent="1" vertex="1">
          <mxGeometry x="402" y="184" width="45.12" height="60.25" as="geometry" />
        </mxCell>
        <mxCell id="kylc7ET0oT1-pVPNehpp-1" value="Two entries are created in 1N :&lt;span style=&quot;background-color: initial;&quot;&gt;i) for cash part&lt;/span&gt;&lt;div&gt;&lt;span style=&quot;background-color: initial;&quot;&gt;ii) for points&lt;/span&gt;&lt;/div&gt;" style="text;html=1;strokeColor=none;fillColor=none;align=left;verticalAlign=top;whiteSpace=wrap;rounded=0;fontSize=8;" parent="1" vertex="1">
          <mxGeometry x="471.5" y="53" width="108.5" height="40" as="geometry" />
        </mxCell>
      </root>
    </mxGraphModel>
  </diagram>
</mxfile>
